<svg xmlns="http://www.w3.org/2000/svg" xmlns:xlink="http://www.w3.org/1999/xlink" width="500" zoomAndPan="magnify" viewBox="0 0 375 374.999991" height="500" preserveAspectRatio="xMidYMid meet" version="1.0"><defs><g/><clipPath id="95ecf63f02"><path d="M 203 129.847656 L 207 129.847656 L 207 133 L 203 133 Z M 203 129.847656 " clip-rule="nonzero"/></clipPath><clipPath id="afdcf1ff16"><path d="M 214 140 L 217.605469 140 L 217.605469 144 L 214 144 Z M 214 140 " clip-rule="nonzero"/></clipPath><clipPath id="d76f53a758"><path d="M 214 145 L 217.605469 145 L 217.605469 149 L 214 149 Z M 214 145 " clip-rule="nonzero"/></clipPath><clipPath id="f90db634f5"><path d="M 207 192 L 211 192 L 211 195.097656 L 207 195.097656 Z M 207 192 " clip-rule="nonzero"/></clipPath><clipPath id="77aa24c2cd"><path d="M 168 129.847656 L 172 129.847656 L 172 133 L 168 133 Z M 168 129.847656 " clip-rule="nonzero"/></clipPath><clipPath id="6b257ca978"><path d="M 157.605469 140 L 161 140 L 161 144 L 157.605469 144 Z M 157.605469 140 " clip-rule="nonzero"/></clipPath><clipPath id="928045faeb"><path d="M 157.605469 145 L 161 145 L 161 149 L 157.605469 149 Z M 157.605469 145 " clip-rule="nonzero"/></clipPath><clipPath id="1662b08058"><path d="M 165 192 L 169 192 L 169 195.097656 L 165 195.097656 Z M 165 192 " clip-rule="nonzero"/></clipPath></defs><g fill="#000000" fill-opacity="1"><g transform="translate(108.94072, 229.718803)"><g><path d="M 10.324219 -24.078125 L 2.589844 -24.078125 L 2.589844 0 L 10.324219 0 Z M 14.382812 -18.265625 C 15.46875 -17.988281 15.957031 -17.183594 15.957031 -16.027344 L 15.957031 -15.746094 C 15.957031 -14.59375 15.433594 -13.789062 14.382812 -13.507812 L 14.382812 -7.769531 L 16.097656 -7.769531 C 20.648438 -7.769531 23.796875 -11.164062 23.796875 -15.710938 L 23.796875 -16.167969 C 23.796875 -20.71875 20.648438 -24.078125 16.097656 -24.078125 L 14.382812 -24.078125 Z M 14.382812 -18.265625 "/></g></g></g><g fill="#000000" fill-opacity="1"><g transform="translate(134.205016, 229.718803)"><g><path d="M 17.566406 -16.378906 C 17.566406 -15.082031 16.585938 -14.136719 15.398438 -14.136719 L 13.191406 -14.136719 L 13.191406 -8.785156 L 17.460938 0 L 26.140625 0 L 20.785156 -10.078125 C 23.902344 -11.234375 25.441406 -13.894531 25.441406 -16.691406 C 25.441406 -20.613281 22.675781 -24.078125 17.324219 -24.078125 L 13.191406 -24.078125 L 13.191406 -18.582031 L 15.398438 -18.582031 C 16.585938 -18.582031 17.566406 -17.671875 17.566406 -16.378906 Z M 9.132812 0 L 9.132812 -24.078125 L 2.589844 -24.078125 L 2.589844 0 Z M 9.132812 0 "/></g></g></g><g fill="#000000" fill-opacity="1"><g transform="translate(161.428872, 229.718803)"><g><path d="M 9.484375 -0.246094 L 9.484375 -23.832031 C 4.410156 -22.363281 1.574219 -18.371094 1.574219 -12.039062 C 1.574219 -5.703125 4.410156 -1.714844 9.484375 -0.246094 Z M 13.542969 -18.652344 C 13.859375 -18.6875 14.207031 -18.722656 14.558594 -18.722656 C 17.953125 -18.722656 19.667969 -16.449219 19.667969 -13.15625 L 19.667969 -10.917969 C 19.667969 -7.628906 17.953125 -5.355469 14.558594 -5.355469 C 14.207031 -5.355469 13.859375 -5.390625 13.542969 -5.425781 L 13.542969 0.386719 C 13.859375 0.421875 14.207031 0.421875 14.558594 0.421875 C 22.78125 0.421875 27.574219 -3.816406 27.574219 -12.039062 C 27.574219 -20.261719 22.78125 -24.496094 14.558594 -24.496094 L 13.542969 -24.496094 Z M 13.542969 -18.652344 "/></g></g></g><path stroke-linecap="round" transform="matrix(0.0255931, 0, 0, -0.0255582, 133.193317, 216.798034)" fill="none" stroke-linejoin="round" d="M 1922.901553 1872.612393 L 2326.911236 1872.612393 L 2326.911236 2276.562338 L 1922.901553 2276.562338 Z M 1922.901553 1872.612393 " stroke="#181821" stroke-width="28" stroke-opacity="1" stroke-miterlimit="10"/><path stroke-linecap="round" transform="matrix(0.0255931, 0, 0, -0.0255582, 133.193317, 216.798034)" fill="none" stroke-linejoin="round" d="M 2450.693575 2088.266337 L 2450.693575 2452.019976 L 2725.426264 2726.669258 L 3162.709128 2726.669258 " stroke="#181821" stroke-width="28" stroke-opacity="1" stroke-miterlimit="10"/><path stroke-linecap="round" transform="matrix(0.0255931, 0, 0, -0.0255582, 133.193317, 216.798034)" fill="none" stroke-linejoin="round" d="M 2326.911236 2088.266337 L 2806.625037 2088.266337 L 2806.625037 2482.893184 L 3031.142696 2482.893184 " stroke="#181821" stroke-width="28" stroke-opacity="1" stroke-miterlimit="10"/><path stroke-linecap="round" transform="matrix(0.0255931, 0, 0, -0.0255582, 133.193317, 216.798034)" fill="none" stroke-linejoin="round" d="M 2388.726091 2088.266337 L 2806.625037 1656.805612 L 2976.959304 1656.805612 " stroke="#181821" stroke-width="28" stroke-opacity="1" stroke-miterlimit="10"/><path stroke-linecap="round" transform="matrix(0.0255931, 0, 0, -0.0255582, 133.193317, 216.798034)" fill="none" stroke-linejoin="round" d="M 2609.885906 1859.926867 L 2609.885906 1345.322454 L 2938.191469 1345.322454 " stroke="#181821" stroke-width="28" stroke-opacity="1" stroke-miterlimit="10"/><path stroke-linecap="round" transform="matrix(0.0255931, 0, 0, -0.0255582, 133.193317, 216.798034)" fill="none" stroke-linejoin="round" d="M 2328.590158 1872.612393 L 2328.590158 1306.654525 L 2572.796993 1062.572776 " stroke="#181821" stroke-width="28" stroke-opacity="1" stroke-miterlimit="10"/><path stroke-linecap="round" transform="matrix(0.0255931, 0, 0, -0.0255582, 133.193317, 216.798034)" fill="none" stroke-linejoin="round" d="M 2326.911236 2276.562338 L 2326.911236 2962.192098 " stroke="#181821" stroke-width="28" stroke-opacity="1" stroke-miterlimit="10"/><path stroke-linecap="round" transform="matrix(0.0255931, 0, 0, -0.0255582, 133.193317, 216.798034)" fill="none" stroke-linejoin="round" d="M 2737.026089 1345.322454 L 2737.026089 1113.162043 L 2907.207727 942.900885 " stroke="#181821" stroke-width="28" stroke-opacity="1" stroke-miterlimit="10"/><path stroke-linecap="round" transform="matrix(0.0255931, 0, 0, -0.0255582, 133.193317, 216.798034)" fill="none" stroke-linejoin="round" d="M 2774.115002 2726.669258 L 2979.401373 2931.93024 L 3162.709128 2931.93024 " stroke="#181821" stroke-width="28" stroke-opacity="1" stroke-miterlimit="10"/><path stroke-linecap="round" transform="matrix(0.0255931, 0, 0, -0.0255582, 133.193317, 216.798034)" fill="none" stroke-linejoin="round" d="M 2370.715837 3006.056507 C 2370.715837 2981.755319 2351.17929 2962.192098 2326.911236 2962.192098 C 2302.643182 2962.192098 2283.106635 2981.755319 2283.106635 3006.056507 C 2283.106635 3030.204858 2302.643182 3049.920917 2326.911236 3049.920917 C 2351.17929 3049.920917 2370.715837 3030.204858 2370.715837 3006.056507 Z M 2370.715837 3006.056507 " stroke="#181821" stroke-width="28" stroke-opacity="1" stroke-miterlimit="10"/><g clip-path="url(#95ecf63f02)"><path stroke-linecap="round" transform="matrix(0.0255931, 0, 0, -0.0255582, 133.193317, 216.798034)" fill="none" stroke-linejoin="round" d="M 2865.997824 3344.591932 C 2865.997824 3320.290744 2846.308648 3300.727523 2822.193223 3300.727523 C 2797.925168 3300.727523 2778.235992 3320.290744 2778.235992 3344.591932 C 2778.235992 3368.740283 2797.925168 3388.456342 2822.193223 3388.456342 C 2846.308648 3388.456342 2865.997824 3368.740283 2865.997824 3344.591932 Z M 2865.997824 3344.591932 " stroke="#181821" stroke-width="28" stroke-opacity="1" stroke-miterlimit="10"/></g><g clip-path="url(#afdcf1ff16)"><path stroke-linecap="round" transform="matrix(0.0255931, 0, 0, -0.0255582, 133.193317, 216.798034)" fill="none" stroke-linejoin="round" d="M 3280.081038 2931.777403 C 3280.081038 2907.629052 3260.391862 2887.912993 3236.123808 2887.912993 C 3211.855754 2887.912993 3192.319207 2907.629052 3192.319207 2931.777403 C 3192.319207 2956.078591 3211.855754 2975.641812 3236.123808 2975.641812 C 3260.391862 2975.641812 3280.081038 2956.078591 3280.081038 2931.777403 Z M 3280.081038 2931.777403 " stroke="#181821" stroke-width="28" stroke-opacity="1" stroke-miterlimit="10"/></g><g clip-path="url(#d76f53a758)"><path stroke-linecap="round" transform="matrix(0.0255931, 0, 0, -0.0255582, 133.193317, 216.798034)" fill="none" stroke-linejoin="round" d="M 3280.081038 2726.669258 C 3280.081038 2702.520907 3260.391862 2682.804848 3236.123808 2682.804848 C 3211.855754 2682.804848 3192.319207 2702.520907 3192.319207 2726.669258 C 3192.319207 2750.970446 3211.855754 2770.533667 3236.123808 2770.533667 C 3260.391862 2770.533667 3280.081038 2750.970446 3280.081038 2726.669258 Z M 3280.081038 2726.669258 " stroke="#181821" stroke-width="28" stroke-opacity="1" stroke-miterlimit="10"/></g><path stroke-linecap="round" transform="matrix(0.0255931, 0, 0, -0.0255582, 133.193317, 216.798034)" fill="none" stroke-linejoin="round" d="M 3148.514606 2482.893184 C 3148.514606 2458.744834 3128.82543 2439.181613 3104.557375 2439.181613 C 3080.441951 2439.181613 3060.752774 2458.744834 3060.752774 2482.893184 C 3060.752774 2507.194373 3080.441951 2526.910432 3104.557375 2526.910432 C 3128.82543 2526.910432 3148.514606 2507.194373 3148.514606 2482.893184 Z M 3148.514606 2482.893184 " stroke="#181821" stroke-width="28" stroke-opacity="1" stroke-miterlimit="10"/><path stroke-linecap="round" transform="matrix(0.0255931, 0, 0, -0.0255582, 133.193317, 216.798034)" fill="none" stroke-linejoin="round" d="M 3043.810925 1345.322454 C 3043.810925 1321.174103 3024.121749 1301.458044 3000.006324 1301.458044 C 2975.73827 1301.458044 2956.049094 1321.174103 2956.049094 1345.322454 C 2956.049094 1369.623642 2975.73827 1389.339701 3000.006324 1389.339701 C 3024.121749 1389.339701 3043.810925 1369.623642 3043.810925 1345.322454 Z M 3043.810925 1345.322454 " stroke="#181821" stroke-width="28" stroke-opacity="1" stroke-miterlimit="10"/><path stroke-linecap="round" transform="matrix(0.0255931, 0, 0, -0.0255582, 133.193317, 216.798034)" fill="none" stroke-linejoin="round" d="M 3064.721136 1656.805612 C 3064.721136 1632.657261 3045.031959 1612.941203 3020.763905 1612.941203 C 2996.495851 1612.941203 2976.959304 1632.657261 2976.959304 1656.805612 C 2976.959304 1681.106801 2996.495851 1700.822859 3020.763905 1700.822859 C 3045.031959 1700.822859 3064.721136 1681.106801 3064.721136 1656.805612 Z M 3064.721136 1656.805612 " stroke="#181821" stroke-width="28" stroke-opacity="1" stroke-miterlimit="10"/><g clip-path="url(#f90db634f5)"><path stroke-linecap="round" transform="matrix(0.0255931, 0, 0, -0.0255582, 133.193317, 216.798034)" fill="none" stroke-linejoin="round" d="M 2988.559129 907.442547 C 2988.559129 883.141359 2968.869953 863.578138 2944.754528 863.578138 C 2920.486474 863.578138 2900.797298 883.141359 2900.797298 907.442547 C 2900.797298 931.743736 2920.486474 951.306957 2944.754528 951.306957 C 2968.869953 951.306957 2988.559129 931.743736 2988.559129 907.442547 Z M 2988.559129 907.442547 " stroke="#181821" stroke-width="28" stroke-opacity="1" stroke-miterlimit="10"/></g><path stroke-linecap="round" transform="matrix(0.0255931, 0, 0, -0.0255582, 133.193317, 216.798034)" fill="none" stroke-linejoin="round" d="M 2643.616975 1018.708367 C 2643.616975 994.407178 2623.927799 974.843957 2599.659744 974.843957 C 2575.54432 974.843957 2555.855143 994.407178 2555.855143 1018.708367 C 2555.855143 1042.856717 2575.54432 1062.572776 2599.659744 1062.572776 C 2623.927799 1062.572776 2643.616975 1042.856717 2643.616975 1018.708367 Z M 2643.616975 1018.708367 " stroke="#181821" stroke-width="28" stroke-opacity="1" stroke-miterlimit="10"/><path stroke-linecap="round" transform="matrix(0.0255931, 0, 0, -0.0255582, 133.193317, 216.798034)" fill="none" stroke-linejoin="round" d="M 2326.911236 2642.914218 L 2632.169779 2948.28387 L 2632.169779 3153.69769 L 2789.072671 3310.509133 " stroke="#181821" stroke-width="28" stroke-opacity="1" stroke-miterlimit="10"/><path stroke-linecap="round" transform="matrix(0.0255931, 0, 0, -0.0255582, 133.193317, 216.798034)" fill="none" stroke-linejoin="round" d="M 1801.256024 2088.266337 L 1801.256024 2452.019976 L 1526.523335 2726.669258 L 1089.3931 2726.669258 " stroke="#181821" stroke-width="28" stroke-opacity="1" stroke-miterlimit="10"/><path stroke-linecap="round" transform="matrix(0.0255931, 0, 0, -0.0255582, 133.193317, 216.798034)" fill="none" stroke-linejoin="round" d="M 1925.190993 2088.266337 L 1445.324562 2088.266337 L 1445.324562 2482.893184 L 1220.959533 2482.893184 " stroke="#181821" stroke-width="28" stroke-opacity="1" stroke-miterlimit="10"/><path stroke-linecap="round" transform="matrix(0.0255931, 0, 0, -0.0255582, 133.193317, 216.798034)" fill="none" stroke-linejoin="round" d="M 1863.223508 2088.266337 L 1445.324562 1656.805612 L 1274.990295 1656.805612 " stroke="#181821" stroke-width="28" stroke-opacity="1" stroke-miterlimit="10"/><path stroke-linecap="round" transform="matrix(0.0255931, 0, 0, -0.0255582, 133.193317, 216.798034)" fill="none" stroke-linejoin="round" d="M 1642.063693 1859.926867 L 1642.063693 1345.322454 L 1313.75813 1345.322454 " stroke="#181821" stroke-width="28" stroke-opacity="1" stroke-miterlimit="10"/><path stroke-linecap="round" transform="matrix(0.0255931, 0, 0, -0.0255582, 133.193317, 216.798034)" fill="none" stroke-linejoin="round" d="M 1923.359441 1872.612393 L 1923.359441 1306.654525 L 1679.152606 1062.572776 " stroke="#181821" stroke-width="28" stroke-opacity="1" stroke-miterlimit="10"/><path stroke-linecap="round" transform="matrix(0.0255931, 0, 0, -0.0255582, 133.193317, 216.798034)" fill="none" stroke-linejoin="round" d="M 1925.190993 2276.562338 L 1925.190993 2962.192098 " stroke="#181821" stroke-width="28" stroke-opacity="1" stroke-miterlimit="10"/><path stroke-linecap="round" transform="matrix(0.0255931, 0, 0, -0.0255582, 133.193317, 216.798034)" fill="none" stroke-linejoin="round" d="M 1514.92351 1345.322454 L 1514.92351 1113.162043 L 1344.741872 942.900885 " stroke="#181821" stroke-width="28" stroke-opacity="1" stroke-miterlimit="10"/><path stroke-linecap="round" transform="matrix(0.0255931, 0, 0, -0.0255582, 133.193317, 216.798034)" fill="none" stroke-linejoin="round" d="M 1477.834597 2726.669258 L 1272.700856 2931.93024 L 1089.3931 2931.93024 " stroke="#181821" stroke-width="28" stroke-opacity="1" stroke-miterlimit="10"/><path stroke-linecap="round" transform="matrix(0.0255931, 0, 0, -0.0255582, 133.193317, 216.798034)" fill="none" stroke-linejoin="round" d="M 1881.233762 3006.056507 C 1881.233762 2981.755319 1900.922938 2962.192098 1925.190993 2962.192098 C 1949.306417 2962.192098 1968.995594 2981.755319 1968.995594 3006.056507 C 1968.995594 3030.204858 1949.306417 3049.920917 1925.190993 3049.920917 C 1900.922938 3049.920917 1881.233762 3030.204858 1881.233762 3006.056507 Z M 1881.233762 3006.056507 " stroke="#181821" stroke-width="28" stroke-opacity="1" stroke-miterlimit="10"/><g clip-path="url(#77aa24c2cd)"><path stroke-linecap="round" transform="matrix(0.0255931, 0, 0, -0.0255582, 133.193317, 216.798034)" fill="none" stroke-linejoin="round" d="M 1385.951775 3344.591932 C 1385.951775 3320.290744 1405.640951 3300.727523 1429.909006 3300.727523 C 1454.024431 3300.727523 1473.713607 3320.290744 1473.713607 3344.591932 C 1473.713607 3368.740283 1454.024431 3388.456342 1429.909006 3388.456342 C 1405.640951 3388.456342 1385.951775 3368.740283 1385.951775 3344.591932 Z M 1385.951775 3344.591932 " stroke="#181821" stroke-width="28" stroke-opacity="1" stroke-miterlimit="10"/></g><g clip-path="url(#6b257ca978)"><path stroke-linecap="round" transform="matrix(0.0255931, 0, 0, -0.0255582, 133.193317, 216.798034)" fill="none" stroke-linejoin="round" d="M 972.02119 2931.777403 C 972.02119 2907.629052 991.557737 2887.912993 1015.825791 2887.912993 C 1040.093846 2887.912993 1059.630392 2907.629052 1059.630392 2931.777403 C 1059.630392 2956.078591 1040.093846 2975.641812 1015.825791 2975.641812 C 991.557737 2975.641812 972.02119 2956.078591 972.02119 2931.777403 Z M 972.02119 2931.777403 " stroke="#181821" stroke-width="28" stroke-opacity="1" stroke-miterlimit="10"/></g><g clip-path="url(#928045faeb)"><path stroke-linecap="round" transform="matrix(0.0255931, 0, 0, -0.0255582, 133.193317, 216.798034)" fill="none" stroke-linejoin="round" d="M 972.02119 2726.669258 C 972.02119 2702.520907 991.557737 2682.804848 1015.825791 2682.804848 C 1040.093846 2682.804848 1059.630392 2702.520907 1059.630392 2726.669258 C 1059.630392 2750.970446 1040.093846 2770.533667 1015.825791 2770.533667 C 991.557737 2770.533667 972.02119 2750.970446 972.02119 2726.669258 Z M 972.02119 2726.669258 " stroke="#181821" stroke-width="28" stroke-opacity="1" stroke-miterlimit="10"/></g><path stroke-linecap="round" transform="matrix(0.0255931, 0, 0, -0.0255582, 133.193317, 216.798034)" fill="none" stroke-linejoin="round" d="M 1103.587623 2482.893184 C 1103.587623 2458.744834 1123.124169 2439.181613 1147.392224 2439.181613 C 1171.660278 2439.181613 1191.196825 2458.744834 1191.196825 2482.893184 C 1191.196825 2507.194373 1171.660278 2526.910432 1147.392224 2526.910432 C 1123.124169 2526.910432 1103.587623 2507.194373 1103.587623 2482.893184 Z M 1103.587623 2482.893184 " stroke="#181821" stroke-width="28" stroke-opacity="1" stroke-miterlimit="10"/><path stroke-linecap="round" transform="matrix(0.0255931, 0, 0, -0.0255582, 133.193317, 216.798034)" fill="none" stroke-linejoin="round" d="M 1208.138674 1345.322454 C 1208.138674 1321.174103 1227.82785 1301.458044 1252.095904 1301.458044 C 1276.211329 1301.458044 1295.900505 1321.174103 1295.900505 1345.322454 C 1295.900505 1369.623642 1276.211329 1389.339701 1252.095904 1389.339701 C 1227.82785 1389.339701 1208.138674 1369.623642 1208.138674 1345.322454 Z M 1208.138674 1345.322454 " stroke="#181821" stroke-width="28" stroke-opacity="1" stroke-miterlimit="10"/><path stroke-linecap="round" transform="matrix(0.0255931, 0, 0, -0.0255582, 133.193317, 216.798034)" fill="none" stroke-linejoin="round" d="M 1187.228464 1656.805612 C 1187.228464 1632.657261 1206.91764 1612.941203 1231.185694 1612.941203 C 1255.453748 1612.941203 1274.990295 1632.657261 1274.990295 1656.805612 C 1274.990295 1681.106801 1255.453748 1700.822859 1231.185694 1700.822859 C 1206.91764 1700.822859 1187.228464 1681.106801 1187.228464 1656.805612 Z M 1187.228464 1656.805612 " stroke="#181821" stroke-width="28" stroke-opacity="1" stroke-miterlimit="10"/><g clip-path="url(#1662b08058)"><path stroke-linecap="round" transform="matrix(0.0255931, 0, 0, -0.0255582, 133.193317, 216.798034)" fill="none" stroke-linejoin="round" d="M 1263.39047 907.442547 C 1263.39047 883.141359 1283.079646 863.578138 1307.3477 863.578138 C 1331.463125 863.578138 1351.152301 883.141359 1351.152301 907.442547 C 1351.152301 931.743736 1331.463125 951.306957 1307.3477 951.306957 C 1283.079646 951.306957 1263.39047 931.743736 1263.39047 907.442547 Z M 1263.39047 907.442547 " stroke="#181821" stroke-width="28" stroke-opacity="1" stroke-miterlimit="10"/></g><path stroke-linecap="round" transform="matrix(0.0255931, 0, 0, -0.0255582, 133.193317, 216.798034)" fill="none" stroke-linejoin="round" d="M 1608.485254 1018.708367 C 1608.485254 994.407178 1628.0218 974.843957 1652.289855 974.843957 C 1676.557909 974.843957 1696.247085 994.407178 1696.247085 1018.708367 C 1696.247085 1042.856717 1676.557909 1062.572776 1652.289855 1062.572776 C 1628.0218 1062.572776 1608.485254 1042.856717 1608.485254 1018.708367 Z M 1608.485254 1018.708367 " stroke="#181821" stroke-width="28" stroke-opacity="1" stroke-miterlimit="10"/><path stroke-linecap="round" transform="matrix(0.0255931, 0, 0, -0.0255582, 133.193317, 216.798034)" fill="none" stroke-linejoin="round" d="M 1925.190993 2642.914218 L 1619.77982 2948.28387 L 1619.77982 3153.69769 L 1462.876928 3310.509133 " stroke="#181821" stroke-width="28" stroke-opacity="1" stroke-miterlimit="10"/><path fill="#000000" d="M 201.609375 151.191406 C 201.609375 150.894531 201.839844 150.625 202.21875 150.421875 L 202.21875 147.867188 L 172.992188 147.867188 L 172.992188 150.414062 C 173.378906 150.617188 173.617188 150.890625 173.617188 151.191406 C 173.617188 151.492188 173.378906 151.765625 172.992188 151.96875 L 172.992188 177.054688 L 202.21875 177.054688 L 202.21875 151.957031 C 201.839844 151.757812 201.609375 151.488281 201.609375 151.191406 " fill-opacity="1" fill-rule="nonzero"/><path stroke-linecap="round" transform="matrix(0.0255931, 0, 0, -0.0255582, 133.193317, 216.798034)" fill="none" stroke-linejoin="round" d="M 2673.227053 2566.953899 C 2673.227053 2578.569562 2682.23218 2589.115361 2697.03722 2597.062919 L 2697.03722 2697.018751 L 1555.065009 2697.018751 L 1555.065009 2597.368594 C 1570.175306 2589.421036 1579.485692 2578.7224 1579.485692 2566.953899 C 1579.485692 2555.185399 1570.175306 2544.486763 1555.065009 2536.539204 L 1555.065009 1555.015728 L 2697.03722 1555.015728 L 2697.03722 2536.997717 C 2682.23218 2544.792438 2673.227053 2555.338237 2673.227053 2566.953899 Z M 2673.227053 2566.953899 " stroke="#181821" stroke-width="28" stroke-opacity="1" stroke-miterlimit="10"/><path fill="#000000" d="M 177.609375 149.777344 L 174.84375 149.777344 L 174.84375 151.390625 L 177.609375 151.390625 L 177.609375 149.777344 " fill-opacity="1" fill-rule="nonzero"/><path stroke-linecap="round" transform="matrix(0.0255931, 0, 0, -0.0255582, 133.193317, 216.798034)" fill="none" stroke-linejoin="round" d="M 1627.411283 2559.159179 L 1735.472808 2559.159179 L 1735.472808 2622.281134 L 1627.411283 2622.281134 Z M 1627.411283 2559.159179 " stroke="#181821" stroke-width="28" stroke-opacity="1" stroke-miterlimit="10"/><path fill="#000000" d="M 181.402344 149.777344 L 178.636719 149.777344 L 178.636719 151.390625 L 181.402344 151.390625 L 181.402344 149.777344 " fill-opacity="1" fill-rule="nonzero"/><path stroke-linecap="round" transform="matrix(0.0255931, 0, 0, -0.0255582, 133.193317, 216.798034)" fill="none" stroke-linejoin="round" d="M 1775.614306 2559.159179 L 1883.675831 2559.159179 L 1883.675831 2622.281134 L 1775.614306 2622.281134 Z M 1775.614306 2559.159179 " stroke="#181821" stroke-width="28" stroke-opacity="1" stroke-miterlimit="10"/><path fill="#000000" d="M 185.195312 149.777344 L 182.425781 149.777344 L 182.425781 151.390625 L 185.195312 151.390625 L 185.195312 149.777344 " fill-opacity="1" fill-rule="nonzero"/><path stroke-linecap="round" transform="matrix(0.0255931, 0, 0, -0.0255582, 133.193317, 216.798034)" fill="none" stroke-linejoin="round" d="M 1923.6647 2559.159179 L 2031.878854 2559.159179 L 2031.878854 2622.281134 L 1923.6647 2622.281134 Z M 1923.6647 2559.159179 " stroke="#181821" stroke-width="28" stroke-opacity="1" stroke-miterlimit="10"/><path fill="#000000" d="M 188.988281 149.777344 L 186.21875 149.777344 L 186.21875 151.390625 L 188.988281 151.390625 L 188.988281 149.777344 " fill-opacity="1" fill-rule="nonzero"/><path stroke-linecap="round" transform="matrix(0.0255931, 0, 0, -0.0255582, 133.193317, 216.798034)" fill="none" stroke-linejoin="round" d="M 2071.867723 2559.159179 L 2180.081876 2559.159179 L 2180.081876 2622.281134 L 2071.867723 2622.281134 Z M 2071.867723 2559.159179 " stroke="#181821" stroke-width="28" stroke-opacity="1" stroke-miterlimit="10"/><path fill="#000000" d="M 192.78125 149.777344 L 190.011719 149.777344 L 190.011719 151.390625 L 192.78125 151.390625 L 192.78125 149.777344 " fill-opacity="1" fill-rule="nonzero"/><path stroke-linecap="round" transform="matrix(0.0255931, 0, 0, -0.0255582, 133.193317, 216.798034)" fill="none" stroke-linejoin="round" d="M 2220.070746 2559.159179 L 2328.284899 2559.159179 L 2328.284899 2622.281134 L 2220.070746 2622.281134 Z M 2220.070746 2559.159179 " stroke="#181821" stroke-width="28" stroke-opacity="1" stroke-miterlimit="10"/><path fill="#000000" d="M 196.574219 149.777344 L 193.804688 149.777344 L 193.804688 151.390625 L 196.574219 151.390625 L 196.574219 149.777344 " fill-opacity="1" fill-rule="nonzero"/><path stroke-linecap="round" transform="matrix(0.0255931, 0, 0, -0.0255582, 133.193317, 216.798034)" fill="none" stroke-linejoin="round" d="M 2368.273768 2559.159179 L 2476.487922 2559.159179 L 2476.487922 2622.281134 L 2368.273768 2622.281134 Z M 2368.273768 2559.159179 " stroke="#181821" stroke-width="28" stroke-opacity="1" stroke-miterlimit="10"/><path fill="#000000" d="M 197.597656 151.390625 L 200.367188 151.390625 L 200.367188 149.777344 L 197.597656 149.777344 L 197.597656 151.390625 " fill-opacity="1" fill-rule="nonzero"/><path stroke-linecap="round" transform="matrix(0.0255931, 0, 0, -0.0255582, 133.193317, 216.798034)" fill="none" stroke-linejoin="round" d="M 2516.476791 2559.159179 L 2624.690945 2559.159179 L 2624.690945 2622.281134 L 2516.476791 2622.281134 Z M 2516.476791 2559.159179 " stroke="#181821" stroke-width="28" stroke-opacity="1" stroke-miterlimit="10"/><path fill="#000000" d="M 177.609375 152.652344 L 174.984375 152.652344 C 174.992188 152.691406 174.996094 152.730469 174.996094 152.769531 C 174.996094 152.910156 174.941406 153.039062 174.84375 153.160156 L 174.84375 155.347656 L 177.609375 155.347656 L 177.609375 152.652344 " fill-opacity="1" fill-rule="nonzero"/><path stroke-linecap="round" transform="matrix(0.0255931, 0, 0, -0.0255582, 133.193317, 216.798034)" fill="none" stroke-linejoin="round" d="M 1735.472808 2509.792613 L 1632.905937 2509.792613 C 1633.211196 2508.264237 1633.363825 2506.73586 1633.363825 2505.207483 C 1633.363825 2499.705327 1631.227015 2494.661684 1627.411283 2489.923717 L 1627.411283 2404.334625 L 1735.472808 2404.334625 Z M 1735.472808 2509.792613 " stroke="#181821" stroke-width="28" stroke-opacity="1" stroke-miterlimit="10"/><path fill="#000000" d="M 181.402344 152.652344 L 178.636719 152.652344 L 178.636719 155.347656 L 181.402344 155.347656 L 181.402344 152.652344 " fill-opacity="1" fill-rule="nonzero"/><path stroke-linecap="round" transform="matrix(0.0255931, 0, 0, -0.0255582, 133.193317, 216.798034)" fill="none" stroke-linejoin="round" d="M 1775.614306 2404.334625 L 1883.675831 2404.334625 L 1883.675831 2509.792613 L 1775.614306 2509.792613 Z M 1775.614306 2404.334625 " stroke="#181821" stroke-width="28" stroke-opacity="1" stroke-miterlimit="10"/><path fill="#000000" d="M 185.195312 152.652344 L 182.425781 152.652344 L 182.425781 155.347656 L 185.195312 155.347656 L 185.195312 152.652344 " fill-opacity="1" fill-rule="nonzero"/><path stroke-linecap="round" transform="matrix(0.0255931, 0, 0, -0.0255582, 133.193317, 216.798034)" fill="none" stroke-linejoin="round" d="M 1923.6647 2404.334625 L 2031.878854 2404.334625 L 2031.878854 2509.792613 L 1923.6647 2509.792613 Z M 1923.6647 2404.334625 " stroke="#181821" stroke-width="28" stroke-opacity="1" stroke-miterlimit="10"/><path fill="#000000" d="M 188.988281 152.652344 L 186.21875 152.652344 L 186.21875 155.347656 L 188.988281 155.347656 L 188.988281 152.652344 " fill-opacity="1" fill-rule="nonzero"/><path stroke-linecap="round" transform="matrix(0.0255931, 0, 0, -0.0255582, 133.193317, 216.798034)" fill="none" stroke-linejoin="round" d="M 2071.867723 2404.334625 L 2180.081876 2404.334625 L 2180.081876 2509.792613 L 2071.867723 2509.792613 Z M 2071.867723 2404.334625 " stroke="#181821" stroke-width="28" stroke-opacity="1" stroke-miterlimit="10"/><path fill="#000000" d="M 192.78125 152.652344 L 190.011719 152.652344 L 190.011719 155.347656 L 192.78125 155.347656 L 192.78125 152.652344 " fill-opacity="1" fill-rule="nonzero"/><path stroke-linecap="round" transform="matrix(0.0255931, 0, 0, -0.0255582, 133.193317, 216.798034)" fill="none" stroke-linejoin="round" d="M 2220.070746 2404.334625 L 2328.284899 2404.334625 L 2328.284899 2509.792613 L 2220.070746 2509.792613 Z M 2220.070746 2404.334625 " stroke="#181821" stroke-width="28" stroke-opacity="1" stroke-miterlimit="10"/><path fill="#000000" d="M 196.574219 152.652344 L 193.804688 152.652344 L 193.804688 155.347656 L 196.574219 155.347656 L 196.574219 152.652344 " fill-opacity="1" fill-rule="nonzero"/><path stroke-linecap="round" transform="matrix(0.0255931, 0, 0, -0.0255582, 133.193317, 216.798034)" fill="none" stroke-linejoin="round" d="M 2368.273768 2404.334625 L 2476.487922 2404.334625 L 2476.487922 2509.792613 L 2368.273768 2509.792613 Z M 2368.273768 2404.334625 " stroke="#181821" stroke-width="28" stroke-opacity="1" stroke-miterlimit="10"/><path fill="#000000" d="M 197.597656 152.652344 L 197.597656 155.347656 L 200.367188 155.347656 L 200.367188 153.136719 C 200.277344 153.023438 200.226562 152.902344 200.226562 152.769531 C 200.226562 152.730469 200.230469 152.691406 200.242188 152.652344 L 197.597656 152.652344 " fill-opacity="1" fill-rule="nonzero"/><path stroke-linecap="round" transform="matrix(0.0255931, 0, 0, -0.0255582, 133.193317, 216.798034)" fill="none" stroke-linejoin="round" d="M 2516.476791 2509.792613 L 2516.476791 2404.334625 L 2624.690945 2404.334625 L 2624.690945 2490.840743 C 2621.180472 2495.273035 2619.196291 2500.011003 2619.196291 2505.207483 C 2619.196291 2506.73586 2619.348921 2508.264237 2619.806808 2509.792613 Z M 2516.476791 2509.792613 " stroke="#181821" stroke-width="28" stroke-opacity="1" stroke-miterlimit="10"/><path fill="#000000" d="M 177.609375 156.613281 L 174.84375 156.613281 L 174.84375 159.308594 L 177.609375 159.308594 L 177.609375 156.613281 " fill-opacity="1" fill-rule="nonzero"/><path stroke-linecap="round" transform="matrix(0.0255931, 0, 0, -0.0255582, 133.193317, 216.798034)" fill="none" stroke-linejoin="round" d="M 1627.411283 2249.357234 L 1735.472808 2249.357234 L 1735.472808 2354.815222 L 1627.411283 2354.815222 Z M 1627.411283 2249.357234 " stroke="#181821" stroke-width="28" stroke-opacity="1" stroke-miterlimit="10"/><path fill="#000000" d="M 181.402344 156.613281 L 178.636719 156.613281 L 178.636719 159.308594 L 181.402344 159.308594 L 181.402344 156.613281 " fill-opacity="1" fill-rule="nonzero"/><path stroke-linecap="round" transform="matrix(0.0255931, 0, 0, -0.0255582, 133.193317, 216.798034)" fill="none" stroke-linejoin="round" d="M 1775.614306 2249.357234 L 1883.675831 2249.357234 L 1883.675831 2354.815222 L 1775.614306 2354.815222 Z M 1775.614306 2249.357234 " stroke="#181821" stroke-width="28" stroke-opacity="1" stroke-miterlimit="10"/><path fill="#000000" d="M 185.195312 156.613281 L 182.425781 156.613281 L 182.425781 159.308594 L 185.195312 159.308594 L 185.195312 156.613281 " fill-opacity="1" fill-rule="nonzero"/><path stroke-linecap="round" transform="matrix(0.0255931, 0, 0, -0.0255582, 133.193317, 216.798034)" fill="none" stroke-linejoin="round" d="M 1923.6647 2249.357234 L 2031.878854 2249.357234 L 2031.878854 2354.815222 L 1923.6647 2354.815222 Z M 1923.6647 2249.357234 " stroke="#181821" stroke-width="28" stroke-opacity="1" stroke-miterlimit="10"/><path fill="#000000" d="M 188.988281 156.613281 L 186.21875 156.613281 L 186.21875 159.308594 L 188.988281 159.308594 L 188.988281 156.613281 " fill-opacity="1" fill-rule="nonzero"/><path stroke-linecap="round" transform="matrix(0.0255931, 0, 0, -0.0255582, 133.193317, 216.798034)" fill="none" stroke-linejoin="round" d="M 2071.867723 2249.357234 L 2180.081876 2249.357234 L 2180.081876 2354.815222 L 2071.867723 2354.815222 Z M 2071.867723 2249.357234 " stroke="#181821" stroke-width="28" stroke-opacity="1" stroke-miterlimit="10"/><path fill="#000000" d="M 192.78125 156.613281 L 190.011719 156.613281 L 190.011719 159.308594 L 192.78125 159.308594 L 192.78125 156.613281 " fill-opacity="1" fill-rule="nonzero"/><path stroke-linecap="round" transform="matrix(0.0255931, 0, 0, -0.0255582, 133.193317, 216.798034)" fill="none" stroke-linejoin="round" d="M 2220.070746 2249.357234 L 2328.284899 2249.357234 L 2328.284899 2354.815222 L 2220.070746 2354.815222 Z M 2220.070746 2249.357234 " stroke="#181821" stroke-width="28" stroke-opacity="1" stroke-miterlimit="10"/><path fill="#000000" d="M 196.574219 156.613281 L 193.804688 156.613281 L 193.804688 159.308594 L 196.574219 159.308594 L 196.574219 156.613281 " fill-opacity="1" fill-rule="nonzero"/><path stroke-linecap="round" transform="matrix(0.0255931, 0, 0, -0.0255582, 133.193317, 216.798034)" fill="none" stroke-linejoin="round" d="M 2368.273768 2249.357234 L 2476.487922 2249.357234 L 2476.487922 2354.815222 L 2368.273768 2354.815222 Z M 2368.273768 2249.357234 " stroke="#181821" stroke-width="28" stroke-opacity="1" stroke-miterlimit="10"/><path fill="#000000" d="M 200.367188 156.613281 L 197.597656 156.613281 L 197.597656 159.308594 L 200.367188 159.308594 L 200.367188 156.613281 " fill-opacity="1" fill-rule="nonzero"/><path stroke-linecap="round" transform="matrix(0.0255931, 0, 0, -0.0255582, 133.193317, 216.798034)" fill="none" stroke-linejoin="round" d="M 2516.476791 2249.357234 L 2624.690945 2249.357234 L 2624.690945 2354.815222 L 2516.476791 2354.815222 Z M 2516.476791 2249.357234 " stroke="#181821" stroke-width="28" stroke-opacity="1" stroke-miterlimit="10"/><path fill="#000000" d="M 177.609375 160.570312 L 174.84375 160.570312 L 174.84375 163.269531 L 177.609375 163.269531 L 177.609375 160.570312 " fill-opacity="1" fill-rule="nonzero"/><path stroke-linecap="round" transform="matrix(0.0255931, 0, 0, -0.0255582, 133.193317, 216.798034)" fill="none" stroke-linejoin="round" d="M 1627.411283 2094.379843 L 1735.472808 2094.379843 L 1735.472808 2199.990669 L 1627.411283 2199.990669 Z M 1627.411283 2094.379843 " stroke="#181821" stroke-width="28" stroke-opacity="1" stroke-miterlimit="10"/><path fill="#000000" d="M 181.402344 160.570312 L 178.636719 160.570312 L 178.636719 163.269531 L 181.402344 163.269531 L 181.402344 160.570312 " fill-opacity="1" fill-rule="nonzero"/><path stroke-linecap="round" transform="matrix(0.0255931, 0, 0, -0.0255582, 133.193317, 216.798034)" fill="none" stroke-linejoin="round" d="M 1775.614306 2094.379843 L 1883.675831 2094.379843 L 1883.675831 2199.990669 L 1775.614306 2199.990669 Z M 1775.614306 2094.379843 " stroke="#181821" stroke-width="28" stroke-opacity="1" stroke-miterlimit="10"/><path fill="#000000" d="M 185.195312 160.570312 L 182.425781 160.570312 L 182.425781 163.269531 L 185.195312 163.269531 L 185.195312 160.570312 " fill-opacity="1" fill-rule="nonzero"/><path stroke-linecap="round" transform="matrix(0.0255931, 0, 0, -0.0255582, 133.193317, 216.798034)" fill="none" stroke-linejoin="round" d="M 1923.6647 2094.379843 L 2031.878854 2094.379843 L 2031.878854 2199.990669 L 1923.6647 2199.990669 Z M 1923.6647 2094.379843 " stroke="#181821" stroke-width="28" stroke-opacity="1" stroke-miterlimit="10"/><path fill="#000000" d="M 188.988281 160.570312 L 186.21875 160.570312 L 186.21875 163.269531 L 188.988281 163.269531 L 188.988281 160.570312 " fill-opacity="1" fill-rule="nonzero"/><path stroke-linecap="round" transform="matrix(0.0255931, 0, 0, -0.0255582, 133.193317, 216.798034)" fill="none" stroke-linejoin="round" d="M 2071.867723 2094.379843 L 2180.081876 2094.379843 L 2180.081876 2199.990669 L 2071.867723 2199.990669 Z M 2071.867723 2094.379843 " stroke="#181821" stroke-width="28" stroke-opacity="1" stroke-miterlimit="10"/><path fill="#000000" d="M 192.78125 160.570312 L 190.011719 160.570312 L 190.011719 163.269531 L 192.78125 163.269531 L 192.78125 160.570312 " fill-opacity="1" fill-rule="nonzero"/><path stroke-linecap="round" transform="matrix(0.0255931, 0, 0, -0.0255582, 133.193317, 216.798034)" fill="none" stroke-linejoin="round" d="M 2220.070746 2094.379843 L 2328.284899 2094.379843 L 2328.284899 2199.990669 L 2220.070746 2199.990669 Z M 2220.070746 2094.379843 " stroke="#181821" stroke-width="28" stroke-opacity="1" stroke-miterlimit="10"/><path fill="#000000" d="M 196.574219 160.570312 L 193.804688 160.570312 L 193.804688 163.269531 L 196.574219 163.269531 L 196.574219 160.570312 " fill-opacity="1" fill-rule="nonzero"/><path stroke-linecap="round" transform="matrix(0.0255931, 0, 0, -0.0255582, 133.193317, 216.798034)" fill="none" stroke-linejoin="round" d="M 2368.273768 2094.379843 L 2476.487922 2094.379843 L 2476.487922 2199.990669 L 2368.273768 2199.990669 Z M 2368.273768 2094.379843 " stroke="#181821" stroke-width="28" stroke-opacity="1" stroke-miterlimit="10"/><path fill="#000000" d="M 200.367188 160.570312 L 197.597656 160.570312 L 197.597656 163.269531 L 200.367188 163.269531 L 200.367188 160.570312 " fill-opacity="1" fill-rule="nonzero"/><path stroke-linecap="round" transform="matrix(0.0255931, 0, 0, -0.0255582, 133.193317, 216.798034)" fill="none" stroke-linejoin="round" d="M 2516.476791 2094.379843 L 2624.690945 2094.379843 L 2624.690945 2199.990669 L 2516.476791 2199.990669 Z M 2516.476791 2094.379843 " stroke="#181821" stroke-width="28" stroke-opacity="1" stroke-miterlimit="10"/><path fill="#000000" d="M 177.609375 164.53125 L 174.84375 164.53125 L 174.84375 167.230469 L 177.609375 167.230469 L 177.609375 164.53125 " fill-opacity="1" fill-rule="nonzero"/><path stroke-linecap="round" transform="matrix(0.0255931, 0, 0, -0.0255582, 133.193317, 216.798034)" fill="none" stroke-linejoin="round" d="M 1627.411283 1939.402452 L 1735.472808 1939.402452 L 1735.472808 2045.013278 L 1627.411283 2045.013278 Z M 1627.411283 1939.402452 " stroke="#181821" stroke-width="28" stroke-opacity="1" stroke-miterlimit="10"/><path fill="#000000" d="M 181.402344 164.53125 L 178.636719 164.53125 L 178.636719 167.230469 L 181.402344 167.230469 L 181.402344 164.53125 " fill-opacity="1" fill-rule="nonzero"/><path stroke-linecap="round" transform="matrix(0.0255931, 0, 0, -0.0255582, 133.193317, 216.798034)" fill="none" stroke-linejoin="round" d="M 1775.614306 1939.402452 L 1883.675831 1939.402452 L 1883.675831 2045.013278 L 1775.614306 2045.013278 Z M 1775.614306 1939.402452 " stroke="#181821" stroke-width="28" stroke-opacity="1" stroke-miterlimit="10"/><path fill="#000000" d="M 185.195312 164.53125 L 182.425781 164.53125 L 182.425781 167.230469 L 185.195312 167.230469 L 185.195312 164.53125 " fill-opacity="1" fill-rule="nonzero"/><path stroke-linecap="round" transform="matrix(0.0255931, 0, 0, -0.0255582, 133.193317, 216.798034)" fill="none" stroke-linejoin="round" d="M 1923.6647 1939.402452 L 2031.878854 1939.402452 L 2031.878854 2045.013278 L 1923.6647 2045.013278 Z M 1923.6647 1939.402452 " stroke="#181821" stroke-width="28" stroke-opacity="1" stroke-miterlimit="10"/><path fill="#000000" d="M 188.988281 164.53125 L 186.21875 164.53125 L 186.21875 167.230469 L 188.988281 167.230469 L 188.988281 164.53125 " fill-opacity="1" fill-rule="nonzero"/><path stroke-linecap="round" transform="matrix(0.0255931, 0, 0, -0.0255582, 133.193317, 216.798034)" fill="none" stroke-linejoin="round" d="M 2071.867723 1939.402452 L 2180.081876 1939.402452 L 2180.081876 2045.013278 L 2071.867723 2045.013278 Z M 2071.867723 1939.402452 " stroke="#181821" stroke-width="28" stroke-opacity="1" stroke-miterlimit="10"/><path fill="#000000" d="M 192.78125 164.53125 L 190.011719 164.53125 L 190.011719 167.230469 L 192.78125 167.230469 L 192.78125 164.53125 " fill-opacity="1" fill-rule="nonzero"/><path stroke-linecap="round" transform="matrix(0.0255931, 0, 0, -0.0255582, 133.193317, 216.798034)" fill="none" stroke-linejoin="round" d="M 2220.070746 1939.402452 L 2328.284899 1939.402452 L 2328.284899 2045.013278 L 2220.070746 2045.013278 Z M 2220.070746 1939.402452 " stroke="#181821" stroke-width="28" stroke-opacity="1" stroke-miterlimit="10"/><path fill="#000000" d="M 196.574219 164.53125 L 193.804688 164.53125 L 193.804688 167.230469 L 196.574219 167.230469 L 196.574219 164.53125 " fill-opacity="1" fill-rule="nonzero"/><path stroke-linecap="round" transform="matrix(0.0255931, 0, 0, -0.0255582, 133.193317, 216.798034)" fill="none" stroke-linejoin="round" d="M 2368.273768 1939.402452 L 2476.487922 1939.402452 L 2476.487922 2045.013278 L 2368.273768 2045.013278 Z M 2368.273768 1939.402452 " stroke="#181821" stroke-width="28" stroke-opacity="1" stroke-miterlimit="10"/><path fill="#000000" d="M 200.367188 164.53125 L 197.597656 164.53125 L 197.597656 167.230469 L 200.367188 167.230469 L 200.367188 164.53125 " fill-opacity="1" fill-rule="nonzero"/><path stroke-linecap="round" transform="matrix(0.0255931, 0, 0, -0.0255582, 133.193317, 216.798034)" fill="none" stroke-linejoin="round" d="M 2516.476791 1939.402452 L 2624.690945 1939.402452 L 2624.690945 2045.013278 L 2516.476791 2045.013278 Z M 2516.476791 1939.402452 " stroke="#181821" stroke-width="28" stroke-opacity="1" stroke-miterlimit="10"/><path fill="#000000" d="M 177.609375 168.492188 L 174.84375 168.492188 L 174.84375 171.1875 L 177.609375 171.1875 L 177.609375 168.492188 " fill-opacity="1" fill-rule="nonzero"/><path stroke-linecap="round" transform="matrix(0.0255931, 0, 0, -0.0255582, 133.193317, 216.798034)" fill="none" stroke-linejoin="round" d="M 1627.411283 1784.577899 L 1735.472808 1784.577899 L 1735.472808 1890.035887 L 1627.411283 1890.035887 Z M 1627.411283 1784.577899 " stroke="#181821" stroke-width="28" stroke-opacity="1" stroke-miterlimit="10"/><path fill="#000000" d="M 181.402344 168.492188 L 178.636719 168.492188 L 178.636719 171.1875 L 181.402344 171.1875 L 181.402344 168.492188 " fill-opacity="1" fill-rule="nonzero"/><path stroke-linecap="round" transform="matrix(0.0255931, 0, 0, -0.0255582, 133.193317, 216.798034)" fill="none" stroke-linejoin="round" d="M 1775.614306 1784.577899 L 1883.675831 1784.577899 L 1883.675831 1890.035887 L 1775.614306 1890.035887 Z M 1775.614306 1784.577899 " stroke="#181821" stroke-width="28" stroke-opacity="1" stroke-miterlimit="10"/><path fill="#000000" d="M 185.195312 168.492188 L 182.425781 168.492188 L 182.425781 171.1875 L 185.195312 171.1875 L 185.195312 168.492188 " fill-opacity="1" fill-rule="nonzero"/><path stroke-linecap="round" transform="matrix(0.0255931, 0, 0, -0.0255582, 133.193317, 216.798034)" fill="none" stroke-linejoin="round" d="M 1923.6647 1784.577899 L 2031.878854 1784.577899 L 2031.878854 1890.035887 L 1923.6647 1890.035887 Z M 1923.6647 1784.577899 " stroke="#181821" stroke-width="28" stroke-opacity="1" stroke-miterlimit="10"/><path fill="#000000" d="M 188.988281 168.492188 L 186.21875 168.492188 L 186.21875 171.1875 L 188.988281 171.1875 L 188.988281 168.492188 " fill-opacity="1" fill-rule="nonzero"/><path stroke-linecap="round" transform="matrix(0.0255931, 0, 0, -0.0255582, 133.193317, 216.798034)" fill="none" stroke-linejoin="round" d="M 2071.867723 1784.577899 L 2180.081876 1784.577899 L 2180.081876 1890.035887 L 2071.867723 1890.035887 Z M 2071.867723 1784.577899 " stroke="#181821" stroke-width="28" stroke-opacity="1" stroke-miterlimit="10"/><path fill="#000000" d="M 192.78125 168.492188 L 190.011719 168.492188 L 190.011719 171.1875 L 192.78125 171.1875 L 192.78125 168.492188 " fill-opacity="1" fill-rule="nonzero"/><path stroke-linecap="round" transform="matrix(0.0255931, 0, 0, -0.0255582, 133.193317, 216.798034)" fill="none" stroke-linejoin="round" d="M 2220.070746 1784.577899 L 2328.284899 1784.577899 L 2328.284899 1890.035887 L 2220.070746 1890.035887 Z M 2220.070746 1784.577899 " stroke="#181821" stroke-width="28" stroke-opacity="1" stroke-miterlimit="10"/><path fill="#000000" d="M 196.574219 168.492188 L 193.804688 168.492188 L 193.804688 171.1875 L 196.574219 171.1875 L 196.574219 168.492188 " fill-opacity="1" fill-rule="nonzero"/><path stroke-linecap="round" transform="matrix(0.0255931, 0, 0, -0.0255582, 133.193317, 216.798034)" fill="none" stroke-linejoin="round" d="M 2368.273768 1784.577899 L 2476.487922 1784.577899 L 2476.487922 1890.035887 L 2368.273768 1890.035887 Z M 2368.273768 1784.577899 " stroke="#181821" stroke-width="28" stroke-opacity="1" stroke-miterlimit="10"/><path fill="#000000" d="M 200.367188 168.492188 L 197.597656 168.492188 L 197.597656 171.1875 L 200.367188 171.1875 L 200.367188 168.492188 " fill-opacity="1" fill-rule="nonzero"/><path stroke-linecap="round" transform="matrix(0.0255931, 0, 0, -0.0255582, 133.193317, 216.798034)" fill="none" stroke-linejoin="round" d="M 2516.476791 1784.577899 L 2624.690945 1784.577899 L 2624.690945 1890.035887 L 2516.476791 1890.035887 Z M 2516.476791 1784.577899 " stroke="#181821" stroke-width="28" stroke-opacity="1" stroke-miterlimit="10"/><path fill="#000000" d="M 177.609375 172.449219 L 174.84375 172.449219 L 174.84375 175.148438 L 177.609375 175.148438 L 177.609375 172.449219 " fill-opacity="1" fill-rule="nonzero"/><path stroke-linecap="round" transform="matrix(0.0255931, 0, 0, -0.0255582, 133.193317, 216.798034)" fill="none" stroke-linejoin="round" d="M 1627.411283 1629.600508 L 1735.472808 1629.600508 L 1735.472808 1735.211334 L 1627.411283 1735.211334 Z M 1627.411283 1629.600508 " stroke="#181821" stroke-width="28" stroke-opacity="1" stroke-miterlimit="10"/><path fill="#000000" d="M 178.636719 175.148438 L 181.402344 175.148438 L 181.402344 172.449219 L 178.636719 172.449219 L 178.636719 175.148438 " fill-opacity="1" fill-rule="nonzero"/><path stroke-linecap="round" transform="matrix(0.0255931, 0, 0, -0.0255582, 133.193317, 216.798034)" fill="none" stroke-linejoin="round" d="M 1775.614306 1629.600508 L 1883.675831 1629.600508 L 1883.675831 1735.211334 L 1775.614306 1735.211334 Z M 1775.614306 1629.600508 " stroke="#181821" stroke-width="28" stroke-opacity="1" stroke-miterlimit="10"/><path fill="#000000" d="M 182.425781 175.148438 L 185.195312 175.148438 L 185.195312 172.449219 L 182.425781 172.449219 L 182.425781 175.148438 " fill-opacity="1" fill-rule="nonzero"/><path stroke-linecap="round" transform="matrix(0.0255931, 0, 0, -0.0255582, 133.193317, 216.798034)" fill="none" stroke-linejoin="round" d="M 1923.6647 1629.600508 L 2031.878854 1629.600508 L 2031.878854 1735.211334 L 1923.6647 1735.211334 Z M 1923.6647 1629.600508 " stroke="#181821" stroke-width="28" stroke-opacity="1" stroke-miterlimit="10"/><path fill="#000000" d="M 186.21875 175.148438 L 188.988281 175.148438 L 188.988281 172.449219 L 186.21875 172.449219 L 186.21875 175.148438 " fill-opacity="1" fill-rule="nonzero"/><path stroke-linecap="round" transform="matrix(0.0255931, 0, 0, -0.0255582, 133.193317, 216.798034)" fill="none" stroke-linejoin="round" d="M 2071.867723 1629.600508 L 2180.081876 1629.600508 L 2180.081876 1735.211334 L 2071.867723 1735.211334 Z M 2071.867723 1629.600508 " stroke="#181821" stroke-width="28" stroke-opacity="1" stroke-miterlimit="10"/><path fill="#000000" d="M 190.011719 175.148438 L 192.78125 175.148438 L 192.78125 172.449219 L 190.011719 172.449219 L 190.011719 175.148438 " fill-opacity="1" fill-rule="nonzero"/><path stroke-linecap="round" transform="matrix(0.0255931, 0, 0, -0.0255582, 133.193317, 216.798034)" fill="none" stroke-linejoin="round" d="M 2220.070746 1629.600508 L 2328.284899 1629.600508 L 2328.284899 1735.211334 L 2220.070746 1735.211334 Z M 2220.070746 1629.600508 " stroke="#181821" stroke-width="28" stroke-opacity="1" stroke-miterlimit="10"/><path fill="#000000" d="M 193.804688 175.148438 L 196.574219 175.148438 L 196.574219 172.449219 L 193.804688 172.449219 L 193.804688 175.148438 " fill-opacity="1" fill-rule="nonzero"/><path stroke-linecap="round" transform="matrix(0.0255931, 0, 0, -0.0255582, 133.193317, 216.798034)" fill="none" stroke-linejoin="round" d="M 2368.273768 1629.600508 L 2476.487922 1629.600508 L 2476.487922 1735.211334 L 2368.273768 1735.211334 Z M 2368.273768 1629.600508 " stroke="#181821" stroke-width="28" stroke-opacity="1" stroke-miterlimit="10"/><path fill="#000000" d="M 197.597656 175.148438 L 200.367188 175.148438 L 200.367188 172.449219 L 197.597656 172.449219 L 197.597656 175.148438 " fill-opacity="1" fill-rule="nonzero"/><path stroke-linecap="round" transform="matrix(0.0255931, 0, 0, -0.0255582, 133.193317, 216.798034)" fill="none" stroke-linejoin="round" d="M 2516.476791 1629.600508 L 2624.690945 1629.600508 L 2624.690945 1735.211334 L 2516.476791 1735.211334 Z M 2516.476791 1629.600508 " stroke="#181821" stroke-width="28" stroke-opacity="1" stroke-miterlimit="10"/><path fill="#000000" d="M 194.90625 169.15625 L 180.300781 169.15625 L 180.300781 155.976562 L 194.90625 155.976562 L 194.90625 169.15625 " fill-opacity="1" fill-rule="nonzero"/><path stroke-linecap="round" transform="matrix(0.0255931, 0, 0, -0.0255582, 133.193317, 216.798034)" fill="none" stroke-linejoin="round" d="M 2411.315223 1864.053484 L 1840.634376 1864.053484 L 1840.634376 2379.727761 L 2411.315223 2379.727761 Z M 2411.315223 1864.053484 " stroke="#181821" stroke-width="28" stroke-opacity="1" stroke-miterlimit="10"/><path fill="#000000" d="M 184.566406 159.34375 L 181.597656 159.34375 L 181.597656 157.632812 L 184.566406 157.632812 L 184.566406 159.34375 " fill-opacity="1" fill-rule="nonzero"/><path stroke-linecap="round" transform="matrix(0.0255931, 0, 0, -0.0255582, 133.193317, 216.798034)" fill="none" stroke-linejoin="round" d="M 2007.305541 2247.981695 L 1891.307294 2247.981695 L 1891.307294 2314.924592 L 2007.305541 2314.924592 Z M 2007.305541 2247.981695 " stroke="#181821" stroke-width="28" stroke-opacity="1" stroke-miterlimit="10"/><path fill="#000000" d="M 184.566406 162.0625 L 181.597656 162.0625 L 181.597656 160.351562 L 184.566406 160.351562 L 184.566406 162.0625 " fill-opacity="1" fill-rule="nonzero"/><path stroke-linecap="round" transform="matrix(0.0255931, 0, 0, -0.0255582, 133.193317, 216.798034)" fill="none" stroke-linejoin="round" d="M 2007.305541 2141.606681 L 1891.307294 2141.606681 L 1891.307294 2208.549578 L 2007.305541 2208.549578 Z M 2007.305541 2141.606681 " stroke="#181821" stroke-width="28" stroke-opacity="1" stroke-miterlimit="10"/><path fill="#000000" d="M 184.566406 164.78125 L 181.597656 164.78125 L 181.597656 163.070312 L 184.566406 163.070312 L 184.566406 164.78125 " fill-opacity="1" fill-rule="nonzero"/><path stroke-linecap="round" transform="matrix(0.0255931, 0, 0, -0.0255582, 133.193317, 216.798034)" fill="none" stroke-linejoin="round" d="M 2007.305541 2035.231668 L 1891.307294 2035.231668 L 1891.307294 2102.174564 L 2007.305541 2102.174564 Z M 2007.305541 2035.231668 " stroke="#181821" stroke-width="28" stroke-opacity="1" stroke-miterlimit="10"/><path fill="#000000" d="M 184.566406 167.5 L 181.597656 167.5 L 181.597656 165.789062 L 184.566406 165.789062 L 184.566406 167.5 " fill-opacity="1" fill-rule="nonzero"/><path stroke-linecap="round" transform="matrix(0.0255931, 0, 0, -0.0255582, 133.193317, 216.798034)" fill="none" stroke-linejoin="round" d="M 2007.305541 1928.856654 L 1891.307294 1928.856654 L 1891.307294 1995.79955 L 2007.305541 1995.79955 Z M 2007.305541 1928.856654 " stroke="#181821" stroke-width="28" stroke-opacity="1" stroke-miterlimit="10"/><path fill="#000000" d="M 193.609375 159.34375 L 190.640625 159.34375 L 190.640625 157.632812 L 193.609375 157.632812 L 193.609375 159.34375 " fill-opacity="1" fill-rule="nonzero"/><path stroke-linecap="round" transform="matrix(0.0255931, 0, 0, -0.0255582, 133.193317, 216.798034)" fill="none" stroke-linejoin="round" d="M 2360.642305 2247.981695 L 2244.644058 2247.981695 L 2244.644058 2314.924592 L 2360.642305 2314.924592 Z M 2360.642305 2247.981695 " stroke="#181821" stroke-width="28" stroke-opacity="1" stroke-miterlimit="10"/><path fill="#000000" d="M 193.609375 162.0625 L 190.640625 162.0625 L 190.640625 160.351562 L 193.609375 160.351562 L 193.609375 162.0625 " fill-opacity="1" fill-rule="nonzero"/><path stroke-linecap="round" transform="matrix(0.0255931, 0, 0, -0.0255582, 133.193317, 216.798034)" fill="none" stroke-linejoin="round" d="M 2360.642305 2141.606681 L 2244.644058 2141.606681 L 2244.644058 2208.549578 L 2360.642305 2208.549578 Z M 2360.642305 2141.606681 " stroke="#181821" stroke-width="28" stroke-opacity="1" stroke-miterlimit="10"/><path fill="#000000" d="M 193.609375 164.78125 L 190.640625 164.78125 L 190.640625 163.070312 L 193.609375 163.070312 L 193.609375 164.78125 " fill-opacity="1" fill-rule="nonzero"/><path stroke-linecap="round" transform="matrix(0.0255931, 0, 0, -0.0255582, 133.193317, 216.798034)" fill="none" stroke-linejoin="round" d="M 2360.642305 2035.231668 L 2244.644058 2035.231668 L 2244.644058 2102.174564 L 2360.642305 2102.174564 Z M 2360.642305 2035.231668 " stroke="#181821" stroke-width="28" stroke-opacity="1" stroke-miterlimit="10"/><path fill="#000000" d="M 193.609375 167.5 L 190.640625 167.5 L 190.640625 165.789062 L 193.609375 165.789062 L 193.609375 167.5 " fill-opacity="1" fill-rule="nonzero"/><path stroke-linecap="round" transform="matrix(0.0255931, 0, 0, -0.0255582, 133.193317, 216.798034)" fill="none" stroke-linejoin="round" d="M 2360.642305 1928.856654 L 2244.644058 1928.856654 L 2244.644058 1995.79955 L 2360.642305 1995.79955 Z M 2360.642305 1928.856654 " stroke="#181821" stroke-width="28" stroke-opacity="1" stroke-miterlimit="10"/><path fill="#000000" d="M 189.382812 159.34375 L 186.414062 159.34375 L 186.414062 157.632812 L 189.382812 157.632812 L 189.382812 159.34375 " fill-opacity="1" fill-rule="nonzero"/><path stroke-linecap="round" transform="matrix(0.0255931, 0, 0, -0.0255582, 133.193317, 216.798034)" fill="none" stroke-linejoin="round" d="M 2195.497433 2247.981695 L 2079.499186 2247.981695 L 2079.499186 2314.924592 L 2195.497433 2314.924592 Z M 2195.497433 2247.981695 " stroke="#181821" stroke-width="28" stroke-opacity="1" stroke-miterlimit="10"/><path fill="#000000" d="M 189.382812 162.0625 L 186.414062 162.0625 L 186.414062 160.351562 L 189.382812 160.351562 L 189.382812 162.0625 " fill-opacity="1" fill-rule="nonzero"/><path stroke-linecap="round" transform="matrix(0.0255931, 0, 0, -0.0255582, 133.193317, 216.798034)" fill="none" stroke-linejoin="round" d="M 2195.497433 2141.606681 L 2079.499186 2141.606681 L 2079.499186 2208.549578 L 2195.497433 2208.549578 Z M 2195.497433 2141.606681 " stroke="#181821" stroke-width="28" stroke-opacity="1" stroke-miterlimit="10"/><g fill="#000000" fill-opacity="1"><g transform="translate(187.904627, 230.150814)"><g><path d="M 11.511719 -21.660156 L 8.890625 -21.660156 L 8.890625 0 L 11.511719 0 Z M 1.75 -22.011719 L 18.828125 -22.011719 L 18.828125 -24.496094 L 1.75 -24.496094 Z M 1.75 -22.011719 "/></g></g></g><g fill="#000000" fill-opacity="1"><g transform="translate(208.479981, 230.150814)"><g><path d="M 16.378906 -2.484375 L 4.722656 -2.484375 L 4.722656 0 L 13.683594 0 Z M 1.75 -15.011719 L 13.402344 -15.011719 L 13.402344 -17.496094 L 4.375 -17.496094 Z M 4.375 -14.664062 L 1.75 -14.664062 L 1.75 -2.625 L 4.375 0 Z M 13.753906 -9.796875 L 16.378906 -9.796875 L 16.378906 -14.871094 L 13.753906 -17.496094 Z M 16.378906 -9.449219 L 4.722656 -9.449219 L 4.722656 -6.964844 L 13.683594 -6.964844 Z M 16.378906 -9.449219 "/></g></g></g><g fill="#000000" fill-opacity="1"><g transform="translate(226.605887, 230.150814)"><g><path d="M 1.75 -15.011719 L 16.238281 -15.011719 L 13.753906 -17.496094 L 4.375 -17.496094 Z M 16.378906 -2.484375 L 4.722656 -2.484375 L 4.722656 0 L 13.683594 0 Z M 4.375 -14.664062 L 1.75 -14.664062 L 1.75 -2.625 L 4.375 0 Z M 4.375 -14.664062 "/></g></g></g><g fill="#000000" fill-opacity="1"><g transform="translate(244.731794, 230.150814)"><g><path d="M 1.75 -15.011719 L 13.4375 -15.011719 L 13.4375 -17.496094 L 1.75 -17.496094 Z M 1.75 -17.847656 L 4.375 -17.847656 L 4.375 -26.246094 L 1.75 -26.246094 Z M 13.789062 0 L 16.414062 0 L 16.414062 -15.011719 L 13.789062 -17.496094 Z M 4.375 -14.664062 L 1.75 -14.664062 L 1.75 0 L 4.375 0 Z M 4.375 -14.664062 "/></g></g></g><g fill="#ffffff" fill-opacity="1"><g transform="translate(181.236658, 171.525795)"><g><path d="M 1.25 0 L 3.125 0 L 3.125 -15.472656 L 1.25 -15.472656 Z M 1.25 -15.722656 L 10.75 -15.722656 L 10.75 -17.5 L 1.25 -17.5 Z M 3.375 -8.347656 L 10.75 -8.347656 L 10.75 -10.125 L 3.375 -10.125 Z M 11 -8.347656 L 12.875 -10.097656 L 12.875 -15.722656 L 11 -17.5 Z M 11 -8.347656 "/></g></g></g></svg>